<svg xmlns="http://www.w3.org/2000/svg" width="1280" height="357"><path fill="none" d="M0 0h1280v714H0z"/><g fill="none" stroke="#FFF" paint-order="fill stroke markers" stroke-linecap="round" stroke-miterlimit="10" stroke-width="1.143"><path d="M-.571 357h0M1.714 357h0M4 357h0M6.286 356.989v.022M8.571 356.989v.022M10.857 356.989v.022M13.143 313.885v86.23M15.429 313.885v86.23M17.714 313.885v86.23M20 232.715v248.57M22.286 232.715v248.57M24.571 233.496v247.008M26.857 233.496v247.008M29.143 233.496v247.008M31.429 245.381v223.238M33.714 245.381v223.238M36 245.381v223.238M38.286 254.184v205.632M40.571 254.184v205.632M42.857 254.184v205.632M45.143 256.593v200.814M47.429 256.593v200.814M49.714 263.224v187.552M52 263.224v187.552M54.286 263.224v187.552M56.571 278.23v157.54M58.857 278.23v157.54M61.143 278.23v157.54M63.429 293.688v126.624M65.714 293.688v126.624M68 293.688v126.624M70.286 307.966v98.068M72.571 307.966v98.068M74.857 307.966v98.068M77.143 319.965v74.07M79.429 319.965v74.07M81.714 336.185v41.63M84 336.185v41.63M86.286 336.185v41.63M88.571 349.464v15.072M90.857 349.464v15.072M93.143 349.464v15.072M95.429 332.571v48.858M97.714 332.571v48.858M100 332.571v48.858M102.286 308.646v96.708M104.571 308.646v96.708M106.857 308.646v96.708M109.143 311.282v91.436M111.429 311.282v91.436M113.714 307.414v99.172M116 307.414v99.172M118.286 307.414v99.172M120.571 317.657v78.686M122.857 317.657v78.686M125.143 317.657v78.686M127.429 343.899v26.202M129.714 343.899v26.202M132 343.899v26.202M134.286 351.1v11.8M136.571 351.1v11.8M138.857 352.46v9.08M141.143 352.46v9.08M143.429 352.46v9.08M145.714 338.087v37.826M148 338.087v37.826M150.286 338.087v37.826M152.571 305.344v103.312M154.857 305.344v103.312M157.143 305.344v103.312M159.429 311.86v90.28M161.714 311.86v90.28M164 311.86v90.28M166.286 326.07v61.86M168.571 326.07v61.86M170.857 345.854v22.292M173.143 345.854v22.292M175.429 345.854v22.292M177.714 352.266v9.468M180 352.266v9.468M182.286 352.266v9.468M184.571 336.717v40.566M186.857 336.717v40.566M189.143 336.717v40.566M191.429 255.43v203.14M193.714 255.43v203.14M196 255.43v203.14M198.286 235.494v243.012M200.571 235.494v243.012M202.857 246.785v220.43M205.143 246.785v220.43M207.429 246.785v220.43M209.714 249.458v215.084M212 249.458v215.084M214.286 249.458v215.084M216.571 255.432v203.136M218.857 255.432v203.136M221.143 255.432v203.136M223.429 255.217v203.566M225.714 255.217v203.566M228 267.944v178.112M230.286 267.944v178.112M232.571 267.944v178.112M234.857 266.511V447.49M237.143 266.511V447.49M239.429 266.511V447.49M241.714 250.69v212.62M244 250.69v212.62M246.286 250.69v212.62M248.571 244.376v225.248M250.857 244.376v225.248M253.143 244.376v225.248M255.429 247.728v218.544M257.714 247.728v218.544M260 260.8v192.4M262.286 260.8v192.4M264.571 260.8v192.4M266.857 303.548v106.904M269.143 303.548v106.904M271.429 303.548v106.904M273.714 313.825v86.35M276 313.825v86.35M278.286 313.825v86.35M280.571 328.644v56.712M282.857 328.644v56.712M285.143 328.644v56.712M287.429 350.327v13.346M289.714 350.327v13.346M292 353.873v6.254M294.286 353.873v6.254M296.571 353.873v6.254M298.857 354.63v4.74M301.143 354.63v4.74M303.429 354.63v4.74M305.714 354.972v4.056M308 354.972v4.056M310.286 354.972v4.056M312.571 355.477v3.046M314.857 355.477v3.046M317.143 293.705v126.59M319.429 293.705v126.59M321.714 293.705v126.59M324 207.141V506.86M326.286 207.141V506.86M328.571 207.141V506.86M330.857 213.465v287.07M333.143 213.465v287.07M335.429 213.465v287.07M337.714 222.897v268.206M340 222.897v268.206M342.286 222.897v268.206M344.571 228.096v257.808M346.857 228.096v257.808M349.143 236.093v241.814M351.429 236.093v241.814M353.714 236.093v241.814M356 239.781v234.438M358.286 239.781v234.438M360.571 239.781v234.438M362.857 243.132v227.736M365.143 243.132v227.736M367.429 243.132v227.736M369.714 241.51v230.98M372 241.51v230.98M374.286 241.51v230.98M376.571 241.758v230.484M378.857 241.758v230.484M381.143 251.202v211.596M383.429 251.202v211.596M385.714 251.202v211.596M388 252.72v208.56M390.286 252.72v208.56M392.571 252.72v208.56M394.857 239.657v234.686M397.143 239.657v234.686M399.429 239.657v234.686M401.714 246.357v221.286M404 246.357v221.286M406.286 263.888v186.224M408.571 263.888v186.224M410.857 263.888v186.224M413.143 255.285v203.43M415.429 255.285v203.43M417.714 255.285v203.43M420 293.59v126.82M422.286 293.59v126.82M424.571 293.59v126.82M426.857 325.628v62.744M429.143 325.628v62.744M431.429 325.628v62.744M433.714 326.707v60.586M436 326.707v60.586M438.286 332.52v48.96M440.571 332.52v48.96M442.857 332.52v48.96M445.143 316.392v81.216M447.429 316.392v81.216M449.714 316.392v81.216M452 321.89v70.22M454.286 321.89v70.22M456.571 321.89v70.22M458.857 353.86v6.28M461.143 353.86v6.28M463.429 353.86v6.28M465.714 355.039v3.922M468 355.039v3.922M470.286 355.152v3.696M472.571 355.152v3.696M474.857 355.152v3.696M477.143 355.546v2.908M479.429 355.546v2.908M481.714 355.546v2.908M484 355.458v3.084M486.286 355.458v3.084M488.571 355.458v3.084M490.857 355.854v2.292M493.143 355.854v2.292M495.429 326.17v61.66M497.714 326.17v61.66M500 326.17v61.66M502.286 307.982v98.036M504.571 307.982v98.036M506.857 307.982v98.036M509.143 302.587v108.826M511.429 302.587v108.826M513.714 302.587v108.826M516 306.66v100.68M518.286 306.66v100.68M520.571 306.66v100.68M522.857 315.757v82.486M525.143 315.757v82.486M527.429 321.688v70.624M529.714 321.688v70.624M532 321.688v70.624M534.286 324.992v64.016M536.571 324.992v64.016M538.857 324.992v64.016M541.143 337.063v39.874M543.429 337.063v39.874M545.714 337.063v39.874M548 337.595v38.81M550.286 337.595v38.81M552.571 337.595v38.81M554.857 332.09v49.82M557.143 332.09v49.82M559.429 329.969v54.062M561.714 329.969v54.062M564 329.969v54.062M566.286 331.382v51.236M568.571 331.382v51.236M570.857 331.382v51.236M573.143 331.176v51.648M575.429 331.176v51.648M577.714 331.176v51.648M580 332.344v49.312M582.286 332.344v49.312M584.571 332.97v48.06M586.857 332.97v48.06M589.143 332.97v48.06M591.429 329.059v55.882M593.714 329.059v55.882M596 329.059v55.882M598.286 322.608v68.784M600.571 322.608v68.784M602.857 322.608v68.784M605.143 323.97v66.06M607.429 323.97v66.06M609.714 323.97v66.06M612 327.773v58.454M614.286 327.773v58.454M616.571 322.003v69.994M618.857 322.003v69.994M621.143 322.003v69.994M623.429 307.654v98.692M625.714 307.654v98.692M628 307.654v98.692M630.286 349.284v15.432M632.571 349.284v15.432M634.857 349.284v15.432M637.143 351.946v10.108M639.429 351.946v10.108M641.714 353.634v6.732M644 353.634v6.732M646.286 353.634v6.732M648.571 354.862v4.276M650.857 354.862v4.276M653.143 354.862v4.276M655.429 355.504v2.992M657.714 355.504v2.992M660 355.504v2.992M662.286 355.746v2.508M664.571 355.746v2.508M666.857 355.746v2.508M669.143 355.881v2.238M671.429 355.881v2.238M673.714 356.08v1.84M676 356.08v1.84M678.286 356.08v1.84M680.571 356.206v1.588M682.857 356.206v1.588M685.143 356.206v1.588M687.429 356.311v1.378M689.714 356.311v1.378M692 356.311v1.378M694.286 356.428v1.144M696.571 356.428v1.144M698.857 356.428v1.144M701.143 356.53v.94M703.429 356.53v.94M705.714 356.428v1.144M708 356.428v1.144M710.286 356.428v1.144M712.571 252.865v208.27M714.857 252.865v208.27M717.143 252.865v208.27M719.429 235.374v243.252M721.714 235.374v243.252M724 235.374v243.252M726.286 239.026v235.948M728.571 239.026v235.948M730.857 248.048v217.904M733.143 248.048v217.904M735.429 248.048v217.904M737.714 254.732v204.536M740 254.732v204.536M742.286 254.732v204.536M744.571 263.808v186.384M746.857 263.808v186.384M749.143 263.808v186.384M751.429 269.455v175.09M753.714 269.455v175.09M756 269.455v175.09M758.286 285.245v143.51M760.571 285.245v143.51M762.857 301.13v111.74M765.143 301.13v111.74M767.429 301.13v111.74M769.714 319.438v75.124M772 319.438v75.124M774.286 319.438v75.124M776.571 333.148v47.704M778.857 333.148v47.704M781.143 333.148v47.704M783.429 347.236v19.528M785.714 347.236v19.528M788 347.236v19.528M790.286 336.797v40.406M792.571 336.797v40.406M794.857 317.89v78.22M797.143 317.89v78.22M799.429 317.89v78.22M801.714 316.88v80.24M804 316.88v80.24M806.286 316.88v80.24M808.571 299.03v115.94M810.857 299.03v115.94M813.143 299.03v115.94M815.429 313.857v86.286M817.714 313.857v86.286M820 335.98v42.04M822.286 335.98v42.04M824.571 335.98v42.04M826.857 351.827v10.346M829.143 351.827v10.346M831.429 351.827v10.346M833.714 352.105v9.79M836 352.105v9.79M838.286 352.105v9.79M840.571 351.405v11.19M842.857 351.405v11.19M845.143 351.405v11.19M847.429 311.53v90.94M849.714 311.53v90.94M852 304.007v105.986M854.286 304.007v105.986M856.571 304.007v105.986M858.857 315.335v83.33M861.143 315.335v83.33M863.429 315.335v83.33M865.714 336.318v41.364M868 336.318v41.364M870.286 336.318v41.364M872.571 353.419v7.162M874.857 353.419v7.162M877.143 353.419v7.162M879.429 349.809v14.382M881.714 349.809v14.382M884 283.713v146.574M886.286 283.713v146.574M888.571 283.713v146.574M890.857 242.281V471.72M893.143 242.281V471.72M895.429 242.281V471.72M897.714 237.382v239.236M900 237.382v239.236M902.286 237.382v239.236M904.571 250.144v213.712M906.857 250.144v213.712M909.143 252.508v208.984M911.429 252.508v208.984M913.714 252.508v208.984M916 255.32v203.36M918.286 255.32v203.36M920.571 255.32v203.36M922.857 259.63v194.74M925.143 259.63v194.74M927.429 259.63v194.74M929.714 296.06v121.88M932 296.06v121.88M934.286 296.06v121.88M936.571 296.06v121.88M938.857 238.02v237.96M941.143 251.44v211.12M943.429 251.44v211.12M945.714 251.44v211.12M948 239.359V474.64M950.286 239.359V474.64M952.571 239.359V474.64M954.857 251.651V462.35M957.143 251.651V462.35M959.429 251.651V462.35M961.714 272.199V441.8M964 272.199V441.8M966.286 309.936v94.128M968.571 309.936v94.128M970.857 309.936v94.128M973.143 319.363v75.274M975.429 319.363v75.274M977.714 319.363v75.274M980 348.263v17.474M982.286 348.263v17.474M984.571 348.263v17.474M986.857 352.592v8.816M989.143 352.592v8.816M991.429 352.592v8.816M993.714 354.66v4.68M996 354.66v4.68M998.286 355.233v3.534M1000.571 355.233v3.534M1002.857 355.233v3.534M1005.143 355.233v3.534M1007.429 354.43v5.14M1009.714 354.43v5.14M1012 353.52v6.96M1014.286 353.52v6.96M1016.571 353.52v6.96M1018.857 263.87v186.26M1021.143 263.87v186.26M1023.429 263.87v186.26M1025.714 238.112v237.776M1028 238.112v237.776M1030.286 233.183v247.634M1032.571 233.183v247.634M1034.857 233.183v247.634M1037.143 240.457v233.086M1039.429 240.457v233.086M1041.714 240.457v233.086M1044 246.384v221.232M1046.286 246.384v221.232M1048.571 246.384v221.232M1050.857 246.384v221.232M1053.143 251.563v210.874M1055.429 251.708v210.584M1057.714 251.708v210.584M1060 251.708v210.584M1062.286 254.656v204.688M1064.571 254.656v204.688M1066.857 254.656v204.688M1069.143 267.562v178.876M1071.429 267.562v178.876M1073.714 267.562v178.876M1076 267.562v178.876M1078.286 272.412v169.176M1080.571 320.115v73.77M1082.857 320.115v73.77M1085.143 289.726v134.548M1087.429 289.726v134.548M1089.714 289.726v134.548M1092 258.956v196.088M1094.286 258.956v196.088M1096.571 262.634v188.732M1098.857 262.634v188.732M1101.143 262.634v188.732M1103.429 253.75v206.5M1105.714 253.75v206.5M1108 253.75v206.5M1110.286 254.925v204.15M1112.571 254.925v204.15M1114.857 261.127v191.746M1117.143 261.127v191.746M1119.429 261.127v191.746M1121.714 261.127v191.746M1124 262.056v189.888M1126.286 263.027v187.946M1128.571 263.027v187.946M1130.857 263.027v187.946M1133.143 269.315v175.37M1135.429 269.315v175.37M1137.714 269.315v175.37M1140 269.315v175.37M1142.286 295.42v123.16M1144.571 295.42v123.16M1146.857 343.895v26.21M1149.143 343.895v26.21M1151.429 325.617v62.766M1153.714 325.617v62.766M1156 325.617v62.766M1158.286 310.054v93.892M1160.571 310.054v93.892M1162.857 346.144v21.712M1165.143 346.144v21.712M1167.429 346.144v21.712M1169.714 346.094v21.812M1172 346.094v21.812M1174.286 346.094v21.812M1176.571 348.285v17.43M1178.857 348.285v17.43M1181.143 348.285v17.43M1183.429 351.034v11.932M1185.714 351.034v11.932M1188 351.034v11.932M1190.286 351.034v11.932M1192.571 352.591v8.818M1194.857 353.21v7.58M1197.143 353.21v7.58M1199.429 353.21v7.58M1201.714 345.99v22.02M1204 345.99v22.02M1206.286 345.99v22.02M1208.571 334.005v45.99M1210.857 334.005v45.99M1213.143 334.005v45.99M1215.429 330.971v52.058M1217.714 330.971v52.058M1220 334.76v44.48M1222.286 334.76v44.48M1224.571 334.76v44.48M1226.857 334.456v45.088M1229.143 334.456v45.088M1231.429 334.456v45.088M1233.714 332.558v48.884M1236 332.558v48.884M1238.286 332.558v48.884M1240.571 330.904v52.192M1242.857 330.904v52.192M1245.143 330.904v52.192M1247.429 330.904v52.192M1249.714 334.845v44.31M1252 350.343v13.314M1254.286 338.047v37.906M1256.571 338.047v37.906M1258.857 335.358v43.284M1261.143 335.358v43.284M1263.429 345.752v22.496M1265.714 345.752v22.496M1268 353.658v6.684M1270.286 353.658v6.684M1272.571 355.303v3.394M1274.857 355.303v3.394M1277.143 355.303v3.394"/></g></svg>
