<svg xmlns="http://www.w3.org/2000/svg" width="1280" height="357"><path fill="none" d="M0 0h1280v714H0z"/><g fill="none" stroke="#CCC" paint-order="fill stroke markers" stroke-linecap="round" stroke-miterlimit="10" stroke-width="2.278"><path d="M-1.139 356.966v.068M3.416 356.772v.456M7.972 348.702v16.596M12.527 324.411v65.178M17.082 316.916v80.168M21.637 334.04v45.92M26.192 338.566v36.868M30.747 343.64v26.72M35.302 345.945v22.11M39.858 347.8v18.4M44.413 352.558v8.884M48.968 312.062v89.876M53.523 327.587v58.826M58.078 336.352v41.296M62.633 316.355v81.29M67.189 330.231v53.538M71.744 335.215v43.57M76.299 332.865v48.27M80.854 343.914v26.172M85.41 341.32v31.36M89.964 344.404v25.192M94.52 336.715v40.57M99.075 326.222v61.556M103.63 333.86v46.28M108.185 319.286v75.428M112.74 326.765v60.47M117.295 337.575v38.85M121.85 327.902v58.196M126.406 340.33v33.34M130.96 333.66v46.68M135.516 305.603v102.794M140.071 314.855v84.29M144.626 326.627v60.746M149.181 331.476v51.048M153.737 335.781v42.438M158.292 326.01v61.98M162.847 327.558v58.884M167.402 328.678v56.644M171.957 324.537v64.926M176.512 327.197v59.606M181.068 300.568v112.864M185.623 302.861V411.14M190.178 316.482v81.036M194.733 321.19v71.62M199.288 331.023v51.954M203.843 329.568v54.864M208.399 325.951v62.098M212.954 326.118v61.764M217.509 328.33v57.34M222.064 333.655v46.69M226.62 334.41v45.18M231.174 303.782v106.436M235.73 311.833v90.334M240.285 327.264v59.472M244.84 330.11v53.78M249.395 329.043v55.914M253.95 323.239v67.522M258.505 321.429v71.142M263.06 324.645v64.71M267.616 327.703v58.594M272.17 331.865v50.27M276.726 309.148v95.704M281.281 297.574v118.852M285.836 320.975v72.05M290.391 326.043v61.914M294.947 334.792v44.416M299.502 332.317v49.366M304.057 326.712v60.576M308.612 331.857v50.286M313.167 330.16v53.68M317.722 327.798v58.404M322.278 327.744v58.512M326.833 304.213v105.574M331.388 305.215v103.57M335.943 318.96v76.08M340.498 332.029v49.942M345.053 335.908v42.184M349.609 326.738v60.524M354.164 322.245v69.51M358.719 325.251v63.498M363.274 324.108v65.784M367.83 324.37v65.26M372.384 314.236v85.528M376.94 295.052v123.896M381.495 309.567v94.866M386.05 316.787v80.426M390.605 321.485v71.03M395.16 327.465v59.07M399.715 322.042v69.916M404.27 326.205v61.59M408.826 327.241v59.518M413.38 335.484v43.032M417.936 333.033v47.934M422.491 315.565v82.87M427.046 305.013v103.974M431.601 323.433v67.134M436.157 332.956v48.088M440.712 335.869v42.262M445.267 323.098v67.804M449.822 320.606v72.788M454.377 323.623v66.754M458.932 324.342v65.316M463.488 330.3v53.4M468.043 315.881v82.238M472.598 299.75v114.5M477.153 311.066v91.868M481.708 322.157v69.686M486.263 324.132v65.736M490.819 324.442v65.116M495.374 330.5v53M499.929 332.91v48.18M504.484 327.375v59.25M509.04 327.436v59.128M513.594 331.752v50.496M518.15 307.472v99.056M522.705 291.881V422.12M527.26 323.042v67.916M531.815 330.072v53.856M536.37 332.153v49.694M540.925 327.625v58.75M545.48 320.14v73.72M550.036 325.572v62.856M554.59 319.791v74.418M559.146 320.387v73.226M563.701 310.067v93.866M568.256 297.683v118.634M572.811 306.684v100.632M577.367 318.308v77.384M581.922 327.374v59.252M586.477 328.943v56.114M591.032 322.87v68.26M595.587 327.53v58.94M600.142 330.064v53.872M604.698 332.945v48.11M609.253 337.92v38.16M613.808 314.544v84.912M618.363 302.763v108.474M622.918 316.861v80.278M627.473 326.679v60.642M632.028 329.258v55.484M636.584 321.752v70.496M641.139 320.434v73.132M645.694 326.73v60.54M650.25 335.49v43.02M654.804 337.423v39.154M659.36 324.36v65.28M663.915 299.246v115.508M668.47 304.725v104.55M673.025 327.207v59.586M677.58 333.223v47.554M682.135 336.366v41.268M686.69 327.883v58.234M691.246 332.614v48.772M695.8 331.228v51.544M700.356 324.39v65.22M704.911 331.573v50.854M709.466 323.691v66.618M714.021 299.264v115.472M718.577 315.99v82.02M723.132 329.619v54.762M727.687 337.413v39.174M732.242 328.823v56.354M736.797 325.004v63.992M741.352 327.267v59.466M745.907 326.154v61.692M750.463 326.283v61.434M755.018 332.757v48.486M759.573 286.865v140.27M764.128 304.828v104.344M768.683 321.094v71.812M773.238 324.733v64.534M777.794 328.913v56.174M782.349 323.396v67.208M786.904 323.613v66.774M791.46 330.753v52.494M796.014 336.177v41.646M800.57 339.233v35.534M805.125 329.81v54.38M809.68 294.929V419.07M814.235 321.51v70.98M818.79 328.189v57.622M823.345 336.225v41.55M827.9 327.316v59.368M832.456 308.512v96.976M837.01 311.276v91.448M841.566 323.285v67.43M846.121 323.568v66.864M850.676 318.224v77.552M855.231 287.891V426.11M859.786 301.207v111.586M864.342 310.314v93.372M868.897 316.29v81.42M873.452 323.148v67.704M878.007 325.698v62.604M882.562 329.064v55.872M887.117 318.283v77.434M891.673 308.14v97.72M896.228 325.454v63.092M900.783 309.426v95.148M905.338 297.045v119.91M909.893 313.168v87.664M914.448 313.706v86.588M919.004 321.252v71.496M923.559 317.365v79.27M928.114 316.942v80.116M932.669 316.2v81.6M937.224 317.266v79.468M941.78 294.286v125.428M946.335 293.546v126.908M950.89 313.848v86.304M955.445 315.735v82.53M960 324.234v65.532M964.555 323.425v67.15M969.11 322.037v69.926M973.665 323.868v66.264M978.22 328.26v57.48M982.776 326.846v60.308M987.331 306.97v100.06M991.886 324.353v65.294M996.441 329.055v55.89M1000.996 320.931v72.138M1005.552 318.142v77.716M1010.107 320.99v72.02M1014.662 324.318v65.364M1019.217 328.567v56.866M1023.772 306.458v101.084M1028.327 292.135v129.73M1032.883 318.06v77.88M1037.438 327.133v59.734M1041.993 333.933v46.134M1046.548 324.954v64.092M1051.103 325.03v63.94M1055.658 328.944v56.112M1060.214 330.665v52.67M1064.769 329.134v55.732M1069.324 313.09v87.82M1073.879 293.04v127.92M1078.434 324.826v64.348M1082.99 329.668v54.664M1087.544 323.124v67.752M1092.1 321.349v71.302M1096.655 318.303v77.394M1101.21 319.278v75.444M1105.765 320.76v72.48M1110.32 323.421v67.158M1114.875 292.82v128.36M1119.43 300.888v112.224M1123.986 320.401V393.6M1128.54 323.802v66.396M1133.096 326.694v60.612M1137.651 324.194v65.612M1142.206 326.389v61.222M1146.762 328.94v56.12M1151.317 331.669v50.662M1155.872 320.548v72.904M1160.427 295.452v123.096M1164.982 318.254v77.492M1169.537 325.587v62.826M1174.093 328.946v56.108M1178.648 321.386v71.228M1183.203 321.314v71.372M1187.758 319.51v74.98M1192.313 317.415v79.17M1196.868 317.826v78.348M1201.423 293.64v126.72M1205.979 303.586v106.828M1210.534 320.5v73M1215.089 325.838v62.324M1219.644 325.657v62.686M1224.2 329.291v55.418M1228.754 330.819v52.362M1233.31 324.277v65.446M1237.865 330.666v52.668M1242.42 320.785v72.43M1246.975 299.714v114.572M1251.53 315.538v82.924M1256.085 325.957v62.086M1260.64 332.107v49.786M1265.196 326.963v60.074M1269.75 323.008v67.984M1274.306 334.42v45.16"/></g></svg>
