<svg xmlns="http://www.w3.org/2000/svg" width="1280" height="357"><path fill="none" d="M0 0h1280v714H0z"/><g fill="none" stroke="#CCC" paint-order="fill stroke markers" stroke-linecap="round" stroke-miterlimit="10" stroke-width="2.23"><path d="M-1.115 357h0M3.345 356.912v.176M7.805 356.81v.38M12.265 356.8v.4M16.725 356.799v.402M21.185 356.801v.398M25.645 356.8v.4M30.105 356.801v.398M34.564 356.802v.396M39.024 356.8v.4M43.484 356.798v.404M47.944 356.797v.406M52.404 356.8v.4M56.864 356.791v.418M61.324 356.707v.586M65.784 356.473v1.054M70.244 356.036v1.928M74.704 355.36v3.28M79.164 354.477v5.046M83.624 352.691v8.618M88.084 349.13v15.74M92.544 344.758v24.484M97.003 341.522v30.956M101.463 337.381v39.238M105.923 331.144v51.712M110.383 331.155v51.69M114.843 328.94v56.12M119.303 277.42v159.16M123.763 184.83v344.34M128.223 187.509V526.49M132.683 227.02v259.96M137.143 269.227v175.546M141.603 303.412v107.176M146.063 310.28v93.44M150.523 309.533v94.934M154.983 317.447v79.106M159.443 310.46v93.08M163.902 313.125v87.75M168.362 314.884v84.232M172.822 311.09v91.82M177.282 247.965v218.07M181.742 168.043v377.914M186.202 207.128v299.744M190.662 252.582v208.836M195.122 280.446v153.108M199.582 289.385v135.23M204.042 305.842v102.316M208.502 317.26v79.48M212.962 313.793v86.414M217.422 305.734v102.532M221.882 309.185v95.63M226.341 315.022v83.956M230.801 320.602v72.796M235.261 186.334v341.332M239.721 185.844v342.312M244.181 235.673v242.654M248.641 279.338v155.324M253.101 298.544v116.912M257.561 311.348v91.304M262.02 313.303v87.394M266.48 320.224v73.552M270.94 325.472v63.056M275.4 352.48v9.04M279.86 352.513v8.974M284.32 353.35v7.3M288.78 353.703v6.594M293.24 353.917v6.166M297.7 353.353v7.294M302.16 352.398v9.204M306.62 353.299v7.402M311.08 348.947v16.106M315.54 342.005v29.99M320 346.902v20.196M324.46 349.873v14.254M328.92 327.796v58.408M333.38 317.068v79.864M337.84 337.903v38.194M342.3 344.997v24.006M346.76 235.296v243.408M351.22 293.886v126.228M355.68 312.118v89.764M360.14 312.543v88.914M364.6 313.273v87.454M369.06 310.552v92.896M373.52 314.604v84.792M377.98 321.51v70.98M382.439 311.603v90.794M386.899 308.09v97.82M391.359 312.61v88.78M395.819 316.982v80.036M400.279 298.174v117.652M404.739 304.62v104.76M409.199 316.845v80.31M413.659 321.217v71.566M418.118 275.27v163.46M422.578 174.416v365.168M427.038 211.06v291.88M431.498 253.117v207.766M435.958 289.216v135.568M440.418 307.984v98.032M444.878 310.393v93.214M449.338 315.55v82.9M453.798 312.463v89.074M458.258 311.867v90.266M462.718 313.87v86.26M467.178 314.63v84.74M471.638 288.08v137.84M476.098 211.281V502.72M480.557 182.203v349.594M485.017 217.78v278.44M489.477 279.417v155.166M493.937 284.847v144.306M498.397 297.114v119.772M502.857 314.004v85.992M507.317 323.223v67.554M511.777 305.505v102.99M516.237 308.433v97.134M520.697 311.663v90.674M525.157 315.552v82.896M529.617 265.056v183.888M534.077 173.802v366.396M538.537 200.142v313.716M542.997 259.602v194.796M547.456 292.978v128.044M551.916 307.13v99.74M556.376 309.752v94.496M560.836 315.648v82.704M565.296 333.2v47.6M569.756 349.183v15.634M574.216 352.935v8.13M578.676 353.532v6.936M583.136 354.06v5.88M587.596 354.063v5.874M592.056 354.868v4.264M596.516 354.96v4.08M600.976 355.152v3.696M605.436 355.272v3.456M609.895 355.489v3.022M614.355 355.635v2.73M618.815 355.727v2.546M623.275 355.87v2.26M627.735 356.08v1.84M632.195 356.178v1.644M636.655 356.345v1.31M641.115 356.398v1.204M645.575 356.53v.94M650.035 356.581v.838M654.495 356.626v.748M658.955 356.64v.72M663.415 356.64v.72M667.875 356.69v.62M672.334 356.696v.608M676.794 356.69v.62M681.254 356.734v.532M685.714 356.754v.492M690.174 356.756v.488M694.634 356.772v.456M699.094 356.778v.444M703.554 356.494v1.012M708.014 332.405v49.19M712.474 145.767v422.466M716.934 199.859V514.14M721.394 223.4v267.2M725.854 247.784v218.432M730.314 290.526v132.948M734.774 292.634v128.732M739.233 295.182v123.636M743.693 303.227v107.546M748.153 304.486v105.028M752.613 298.21v117.58M757.073 296.568v120.864M761.533 297.212v119.576M765.993 237.286v239.428M770.453 183.808v346.384M774.913 225.61v262.78M779.373 261.877v190.246M783.833 287.161v139.678M788.293 284.922v144.156M792.753 296.681V417.32M797.213 300.782v112.436M801.672 295.757v122.486M806.132 298.5v117M810.592 300.593v112.814M815.052 300.107v113.786M819.512 245.753v222.494M823.972 181.633v350.734M828.432 219.809V494.19M832.892 273.97v166.06M837.352 291.808v130.384M841.812 299.327v115.346M846.272 302.888v108.224M850.732 311.436v91.128M855.192 317.737v78.526M859.652 330.529v52.942M864.111 331.069v51.862M868.571 327.74v58.52M873.031 328.794v56.412M877.491 331.91v50.18M881.951 341.72v30.56M886.411 340.324v33.352M890.871 334.222v45.556M895.331 338.903v36.194M899.79 346.273v21.454M904.25 307.765v98.47M908.71 298.334v117.332M913.17 319.69v74.62M917.63 308.74v96.52M922.09 275.838v162.324M926.55 290.678v132.644M931.01 316.987v80.026M935.47 309.856v94.288M939.93 300.099v113.802M944.39 298.129V415.87M948.85 307.116v99.768M953.31 303.727v106.546M957.77 303.97v106.06M962.23 305.77v102.46M966.69 308.063v97.874M971.15 304.633v104.734M975.61 305.816v102.368M980.07 321.349v71.302M984.53 298.749V415.25M988.99 239.851V474.15M993.45 186.76v340.48M997.91 228.813v256.374M1002.37 273.669v166.662M1006.83 292.28v129.44M1011.29 301.132v111.736M1015.75 300.38v113.24M1020.21 300.714v112.572M1024.669 301.397v111.206M1029.129 305.433v103.134M1033.589 300.05v113.9M1038.049 216.03v281.94M1042.509 182.867v348.266M1046.969 210.957v292.086M1051.429 260.77v192.46M1055.889 290.155v133.69M1060.348 285.35v143.3M1064.808 296.475v121.05M1069.268 301.106v111.788M1073.728 294.226v125.548M1078.188 299.558v114.884M1082.648 300.232v113.536M1087.108 255.525v202.95M1091.568 190.713v332.574M1096.028 190.651V523.35M1100.488 236.71v240.58M1104.948 286.302v141.396M1109.408 300.11v113.78M1113.868 300.085v113.83M1118.328 304.322v105.356M1122.787 316.917v80.166M1127.247 328.358v57.284M1131.707 336.9v40.2M1136.167 335.1v43.8M1140.627 337.573v38.854M1145.087 343.869v26.262M1149.547 345.8v22.4M1154.007 341.648v30.704M1158.467 336.801V377.2M1162.927 338.416v37.168M1167.387 344.309v25.382M1171.847 321.059v71.882M1176.307 303.893v106.214M1180.767 301.324v111.352M1185.226 305.863v102.274M1189.686 293.846v126.308M1194.146 289.56v134.88M1198.606 329.452v55.096M1203.066 330.642v52.716M1207.526 304.46v105.08M1211.986 315.717v82.566M1216.446 347.537v18.926M1220.906 347.443v19.114M1225.366 325.628v62.744M1229.826 320.093v73.814M1234.286 344.578v24.844M1238.746 340.96v32.08M1243.206 326.453v61.094M1247.666 308.384v97.232M1252.125 314.208v85.584M1256.585 324.536v64.928M1261.045 181.35v351.3M1265.505 209.345v295.31M1269.965 247.494v219.012M1274.425 247.494v219.012"/></g></svg>
