<svg xmlns="http://www.w3.org/2000/svg" width="1280" height="357"><path fill="none" d="M0 0h1280v714H0z"/><g fill="none" stroke="#CCC" paint-order="fill stroke markers" stroke-linecap="round" stroke-miterlimit="10" stroke-width="2.991"><path d="M-1.495 356.983v.034M4.486 265.071V448.93M10.467 254.607v204.786M16.449 272.056v169.888M22.43 281.49v151.02M28.411 248.284v217.432M34.393 249.402v215.196M40.374 186.257v341.486M46.355 187.656v338.688M52.336 220.619V493.38M58.318 196.978v320.044M64.3 210.135v293.73M70.28 213.507v286.986M76.262 179.216v355.568M82.243 196.954v320.092M88.224 244.975v224.05M94.206 252.643v208.714M100.187 258.168v197.664M106.168 189.697v334.606M112.15 198.401V515.6M118.13 224.653v264.694M124.112 272.565v168.87M130.093 276.441V437.56M136.075 256.5v201M142.056 182.002v349.996M148.037 189.475v335.05M154.019 250.337v213.326M160 223.275v267.45M165.981 228.6v256.8M171.963 209.527v294.946M177.944 169.948v374.104M183.925 184.695v344.61M189.907 252.601v208.798M195.888 235.916v242.168M201.87 239.654v234.692M207.85 190.58v332.84M213.832 180.167v353.666M219.813 235.189V478.81M225.794 312.111v89.778M231.776 326.85v60.3M237.757 315.165v83.67M243.738 154.552v404.896M249.72 182.559V531.44M255.7 266.94v180.12M261.682 335.397v43.206M267.664 343.824v26.352M273.645 269.24v175.52M279.626 164.486v385.028M285.607 208.389V505.61M291.589 240.258v233.484M297.57 224.213v265.574M303.551 232.183v249.634M309.533 172.983v368.034M315.514 176.228v361.544M321.495 222.432v269.136M327.477 244.743v224.514M333.458 230.468v253.064M339.44 235.084v243.832M345.42 184.906v344.188M351.402 167.182v379.636M357.383 286.623v140.754M363.364 337.426v39.148M369.346 352.39v9.22M375.327 267.096v179.808M381.308 177.143v359.714M387.29 211.566v290.868M393.271 319.261v75.478M399.252 348.314v17.372M405.234 332.885v48.23M411.215 194.652v324.696M417.196 170.52v372.96M423.178 256.632v200.736M429.159 195.41v323.18M435.14 217.474v279.052M441.121 217.16v279.68M447.103 159.631V554.37M453.084 179.871V534.13M459.065 227.134v259.732M465.047 227.775v258.45M471.028 232.822v248.356M477.01 192.989V521.01M482.99 188.72v336.56M488.972 237.718v238.564M494.953 336.218v41.564M500.935 347.683v18.634M506.916 316.743v80.514M512.897 167.825v378.35M518.879 174.763v364.474M524.86 293.84v126.32M530.841 335.328v43.344M536.822 352.936v8.128M542.804 245.627v222.746M548.785 170.382v373.236M554.766 185.8v342.4M560.748 228.965v256.07M566.729 230.077v253.846M572.71 217.651V496.35M578.692 188.106v337.788M584.673 178.156v357.688M590.654 245.943v222.114M596.636 218.221V495.78M602.617 227.328v259.344M608.598 184.43v345.14M614.58 175.114v363.772M620.56 249.343v215.314M626.542 339.932v34.136M632.523 352.704v8.592M638.505 228.504v256.992M644.486 174.333v365.334M650.467 250.252v213.496M656.449 337.693v38.614M662.43 348.73v16.54M668.411 276.87v160.26M674.393 180.037v353.926M680.374 210.546v292.908M686.355 250.37v213.26M692.336 221.51v270.98M698.318 204.29v305.42M704.3 176.413v361.174M710.28 210.31v293.38M716.262 245.985v222.03M722.243 231.352v251.296M728.224 225.8v262.4M734.206 193.42v327.16M740.187 178.186v357.628M746.168 297.19v119.62M752.15 346.62v20.76M758.13 328.044v57.912M764.112 190.378v333.244M770.093 184.688v344.624M776.075 285.469V428.53M782.056 344.282v25.436M788.037 354.056v5.888M794.019 201.009V512.99M800 176.63v360.74M805.981 241.171V472.83M811.963 206.01v301.98M817.944 221.85v270.3M823.925 192.006v329.988M829.907 170.748v372.504M835.888 242.694v228.612M841.87 227.392v259.216M847.85 234.315v245.37M853.832 208.333v297.334M859.813 182.96v348.08M865.794 241.284v231.432M871.776 336.176v41.648M877.757 351.294v11.412M883.738 246.77v220.46M889.72 167.741V546.26M895.7 257.669V456.33M901.682 332.67v48.66M907.664 352.853v8.294M913.645 257.46v199.08M919.626 176.374v361.252M925.607 215.022v283.956M931.589 209.556v294.888M937.57 222.477v269.046M943.551 195.153v323.694M949.533 162.45v389.1M955.514 230.333v253.334M961.495 253.339V460.66M967.477 229.822v254.356M973.458 268.167v177.666M979.44 355.997v2.006M985.42 356.824v.352M991.402 356.894v.212M997.383 356.906v.188M1003.364 356.919v.162M1009.346 356.94v.12M1015.327 356.935v.13M1021.308 356.956v.088M1027.29 356.957v.086M1033.271 259.583v194.834M1039.252 212.286v289.428M1045.234 223.007v267.986M1051.215 217.85v278.3M1057.196 228.15v257.7M1063.178 182.028v349.944M1069.159 159.92v394.16M1075.14 194.234v325.532M1081.121 246.75v220.5M1087.103 283.283v147.434M1093.084 222.15v269.7M1099.065 160.8v392.4M1105.047 183.683v346.634M1111.028 238.414v237.172M1117.01 311.996v90.008M1122.99 246.802v220.396M1128.972 156.313v401.374M1134.953 177.042v359.916M1140.935 240.34v233.32M1146.916 329.938v54.124M1152.897 218.163v277.674M1158.879 147.631V566.37M1164.86 185.268v343.464M1170.841 245.235v223.53M1176.822 320.216v73.568M1182.804 181.316v351.368M1188.785 159.533v394.934M1194.766 213.625v286.75M1200.748 288.884v136.232M1206.729 312.488v89.024M1212.71 160.507v392.986M1218.692 163.777v386.446M1224.673 236.755v240.49M1230.654 346.287v21.426M1236.636 242.679V471.32M1242.617 164.306v385.388M1248.598 185.193v343.614M1254.58 308.815v96.37M1260.56 339.48v35.04M1266.542 173.054v367.892M1272.523 192.627v328.746"/></g></svg>
